<svg width="50" height="50" viewBox="0 0 50 50" fill="none" xmlns="http://www.w3.org/2000/svg">
<path d="M21.875 38.8889H28.125V25H21.875V38.8889ZM25 19.4444C25.8854 19.4444 26.6281 19.1778 27.2281 18.6444C27.8281 18.1111 28.1271 17.4519 28.125 16.6667C28.1229 15.8815 27.8229 15.2222 27.225 14.6889C26.6271 14.1556 25.8854 13.8889 25 13.8889C24.1146 13.8889 23.3729 14.1556 22.775 14.6889C22.1771 15.2222 21.8771 15.8815 21.875 16.6667C21.8729 17.4519 22.1729 18.112 22.775 18.6472C23.3771 19.1824 24.1187 19.4481 25 19.4444ZM0 50V16.6667L25 0L50 16.6667V50H0ZM6.25 44.4444H43.75V19.4444L25 6.94444L6.25 19.4444V44.4444Z" fill="white"/>
</svg>
