<svg width="50" height="50" viewBox="0 0 50 50" fill="none" xmlns="http://www.w3.org/2000/svg">
<path d="M45 12.5H42.375L12.375 50H5C3.67392 50 2.40215 49.3415 1.46447 48.1694C0.526784 46.9973 0 45.4076 0 43.75C0 42.0924 0.526784 40.5027 1.46447 39.3306C2.40215 38.1585 3.67392 37.5 5 37.5H8.225L12.5 32.1562V18.75C12.5 17.9212 12.7634 17.1263 13.2322 16.5403C13.7011 15.9542 14.337 15.625 15 15.625H17.5C18.163 15.625 18.7989 15.9542 19.2678 16.5403C19.7366 17.1263 20 17.9212 20 18.75V22.7812L38.225 0H45C46.3261 0 47.5979 0.65848 48.5355 1.83058C49.4732 3.00268 50 4.5924 50 6.25C50 7.9076 49.4732 9.49732 48.5355 10.6694C47.5979 11.8415 46.3261 12.5 45 12.5ZM16.25 3.125C17.2446 3.125 18.1984 3.61886 18.9017 4.49794C19.6049 5.37701 20 6.5693 20 7.8125C20 9.0557 19.6049 10.248 18.9017 11.1271C18.1984 12.0061 17.2446 12.5 16.25 12.5C15.2554 12.5 14.3016 12.0061 13.5983 11.1271C12.8951 10.248 12.5 9.0557 12.5 7.8125C12.5 6.5693 12.8951 5.37701 13.5983 4.49794C14.3016 3.61886 15.2554 3.125 16.25 3.125Z" fill="black"/>
</svg>
