<svg width="50" height="50" viewBox="0 0 50 50" fill="none" xmlns="http://www.w3.org/2000/svg">
<path d="M11.1111 41.6667H19.4444V30.5556H22.2222V23.6111C22.2222 22.0833 21.6787 20.7759 20.5917 19.6889C19.5046 18.6019 18.1963 18.0574 16.6667 18.0556H13.8889C12.3611 18.0556 11.0537 18.6 9.96667 19.6889C8.87963 20.7778 8.33518 22.0852 8.33333 23.6111V30.5556H11.1111V41.6667ZM15.2778 15.2778C16.25 15.2778 17.0722 14.9417 17.7444 14.2694C18.4167 13.5972 18.7519 12.7759 18.75 11.8056C18.7481 10.8352 18.412 10.013 17.7417 9.33889C17.0713 8.66481 16.25 8.32963 15.2778 8.33333C14.3056 8.33704 13.4833 8.67315 12.8111 9.34167C12.1389 10.0102 11.8037 10.8315 11.8056 11.8056C11.8074 12.7796 12.1435 13.6018 12.8139 14.2722C13.4843 14.9426 14.3056 15.2778 15.2778 15.2778ZM27.7778 22.2222H41.6667L34.7222 11.1111L27.7778 22.2222ZM34.7222 38.8889L41.6667 27.7778H27.7778L34.7222 38.8889ZM5.55555 50C4.02778 50 2.72037 49.4565 1.63333 48.3694C0.546296 47.2824 0.00185185 45.9741 0 44.4444V5.55555C0 4.02778 0.544445 2.72037 1.63333 1.63333C2.72222 0.546296 4.02963 0.00185185 5.55555 0H44.4444C45.9722 0 47.2806 0.544445 48.3694 1.63333C49.4583 2.72222 50.0018 4.02963 50 5.55555V44.4444C50 45.9722 49.4565 47.2806 48.3694 48.3694C47.2824 49.4583 45.9741 50.0018 44.4444 50H5.55555Z" fill="black"/>
</svg>
