<svg width="40" height="40" viewBox="0 0 40 40" fill="none" xmlns="http://www.w3.org/2000/svg">
<path d="M17.5 31.1111H22.5V20H17.5V31.1111ZM20 15.5556C20.7083 15.5556 21.3025 15.3422 21.7825 14.9156C22.2625 14.4889 22.5017 13.9615 22.5 13.3333C22.4983 12.7052 22.2583 12.1778 21.78 11.7511C21.3017 11.3244 20.7083 11.1111 20 11.1111C19.2917 11.1111 18.6983 11.3244 18.22 11.7511C17.7417 12.1778 17.5017 12.7052 17.5 13.3333C17.4983 13.9615 17.7383 14.4896 18.22 14.9178C18.7017 15.3459 19.295 15.5585 20 15.5556ZM0 40V13.3333L20 0L40 13.3333V40H0ZM5 35.5556H35V15.5556L20 5.55556L5 15.5556V35.5556Z" fill="black"/>
</svg>
